<svg width="207" height="207" viewBox="0 0 207 207" fill="none" xmlns="http://www.w3.org/2000/svg">
<path d="M0 102.948C0.226682 93.5204 1.56352 84.4182 4.06283 75.3568C7.4805 62.9532 13.1592 51.7761 20.7501 41.5347C28.0446 31.6944 37.0305 23.6617 47.2951 16.8555C59.8382 8.52637 73.6425 3.61494 88.278 1.22025C102.024 -1.02913 115.805 -0.116594 129.342 3.52775C137.45 5.70738 145.309 8.60774 152.597 12.6822C163.031 18.5178 172.4 25.7484 180.392 34.7808C187.024 42.2729 192.581 50.4392 196.777 59.4309C200.788 68.0158 203.984 76.9261 205.054 86.4816C205.501 90.498 206.094 94.4794 206.269 98.5423C206.803 111.329 205.42 123.826 201.177 135.927C199.276 141.356 197.422 146.837 194.255 151.719C193.017 153.632 193.017 155.463 193.842 157.561C197.911 167.889 201.956 178.23 205.81 188.639C206.629 190.848 206.763 193.348 204.932 195.481C203.043 197.678 200.7 198.021 198.108 197.393C190.564 195.562 183.275 192.859 175.719 191.057C171.796 190.122 167.971 188.744 164.135 187.465C163.118 187.128 162.519 187.553 161.798 188.058C147.238 198.166 131.051 204.083 113.451 205.629C99.955 206.809 86.4762 205.92 73.4274 201.845C57.6353 196.91 43.5519 188.884 31.6831 177.352C22.5403 168.465 15.1702 158.247 9.77637 146.587C3.33048 132.667 0.145309 118.124 0 102.948ZM103.367 167.628C138.566 168.517 168.326 138.677 168.14 103.303C167.948 66.5336 138.816 38.4716 103.576 38.489C66.656 38.5123 38.7277 67.3532 38.5126 103.134C38.2976 138.868 67.9406 168.459 103.367 167.628Z" fill="url(#paint0_linear_0_1)"/>
<path d="M103.367 167.622C67.9406 168.453 38.2976 138.863 38.5126 103.128C38.7277 67.3474 66.656 38.5065 103.576 38.4833C138.816 38.46 167.948 66.5279 168.14 103.297C168.326 138.671 138.566 168.511 103.367 167.622Z" fill="#FCFDFC"/>
<path d="M86.5225 78.9778C98.4902 78.5419 107.807 88.7077 107.889 99.8732C107.97 110.614 98.6587 121.088 86.6504 121.135C75.2756 121.176 65.3946 111.161 65.3307 100.024C65.2726 89.318 74.613 78.4489 86.5225 78.972V78.9778Z" fill="url(#paint1_linear_0_1)"/>
<path d="M136.985 103.57C137.491 108.284 132.894 113.062 127.726 112.922C122.693 112.788 118.421 108.644 118.421 103.657C118.421 98.5132 122.658 94.4504 127.866 94.3341C132.184 94.2353 137.433 98.0715 136.985 103.57Z" fill="url(#paint2_linear_0_1)"/>
<defs>
<linearGradient id="paint0_linear_0_1" x1="14.3972" y1="114.311" x2="1397.79" y2="-44.4009" gradientUnits="userSpaceOnUse">
<stop stop-color="#7549E0"/>
<stop offset="1" stop-color="#5554EB"/>
</linearGradient>
<linearGradient id="paint1_linear_0_1" x1="-13.8451" y1="112.143" x2="1484.14" y2="-68.9522" gradientUnits="userSpaceOnUse">
<stop stop-color="#7549E0"/>
<stop offset="1" stop-color="#5554EB"/>
</linearGradient>
<linearGradient id="paint2_linear_0_1" x1="-12.8162" y1="120.652" x2="1485.17" y2="-60.4428" gradientUnits="userSpaceOnUse">
<stop stop-color="#7549E0"/>
<stop offset="1" stop-color="#5554EB"/>
</linearGradient>
</defs>
</svg>
