<svg width="1531" height="212" viewBox="0 0 1531 212" fill="none" xmlns="http://www.w3.org/2000/svg">
<path d="M802.558 84.4764C802.558 64.6389 802.558 44.8013 802.558 24.9638C802.558 21.424 802.79 21.5461 806.208 20.6103C814.52 18.3377 823.046 17.0822 831.393 14.9549C837.705 13.3449 837.066 12.659 837.072 18.9887C837.095 39.5179 837.072 60.0413 837.077 80.5705C837.077 83.0466 837.333 83.1861 839.524 82.0875C850.696 76.4903 862.518 73.5318 875.003 74.5547C885.279 75.3975 895.073 78.17 904.164 83.4186C912.853 88.4346 920.072 94.9154 925.931 102.931C931.069 109.952 934.434 117.828 936.637 126.244C939.049 135.48 939.619 144.826 937.596 154.108C936.102 160.955 933.993 167.645 930.575 173.952C925.588 183.159 918.944 190.779 910.592 196.98C905.727 200.59 900.403 203.38 894.736 205.583C885.733 209.076 876.421 210.378 866.825 209.919C855.008 209.349 844.151 205.687 834.247 199.34C822.076 191.546 813.13 180.996 807.702 167.552C804.313 159.159 802.569 150.452 802.564 141.408C802.546 122.437 802.564 103.46 802.564 84.4881L802.558 84.4764ZM904.251 141.199C904.018 122.356 889.022 107.772 870.899 107.679C852.189 107.581 837.124 122.512 837.101 141.211C837.077 159.717 852.248 174.736 870.679 174.754C888.836 174.771 904.169 159.857 904.251 141.199Z" fill="url(#paint0_linear_500_47)"/>
<path d="M356.408 211.837C341.789 212.429 328.113 208.71 315.442 201.735C301.585 194.103 290.49 183.385 282.509 169.651C277.598 161.194 273.866 152.307 272.111 142.582C270.856 135.608 269.542 128.668 270.024 121.577C270.809 109.935 273.082 98.6586 277.918 87.8766C285.2 71.6486 296.354 58.8033 311.269 49.364C322.923 41.9881 335.803 37.78 349.665 36.5478C358.465 35.7631 367.166 36.3095 375.635 38.4077C392.031 42.4647 406.44 50.2242 418.21 62.5929C421.192 65.7258 423.825 69.1086 426.568 72.4158C428.376 74.6012 428.109 75.2348 425.755 76.839C418.559 81.7388 411.427 86.7316 404.266 91.6721C403.063 92.5033 401.819 93.2879 400.587 94.0784C397.809 95.857 397.728 95.7698 395.676 93.1252C388.096 83.3546 378.343 77.1761 366.068 74.793C352.031 72.067 339.22 75.0255 327.718 83.035C320.034 88.3881 314.57 95.8047 310.821 104.494C306.113 115.41 305.602 126.738 308.595 137.886C311.542 148.871 317.709 158.2 327.166 165.1C337.918 172.94 349.915 176.067 363.057 174.719C368.753 174.132 374.031 171.853 379.157 169.377C385.969 166.088 391.52 161.217 395.99 155.189C397.414 153.271 398.309 153.126 400.308 154.533C408.341 160.171 416.211 166.053 424.517 171.301C425.168 171.714 425.731 172.266 426.377 172.702C427.748 173.632 427.742 174.597 426.778 175.905C420.111 184.943 412.177 192.575 402.709 198.724C391.473 206.024 379.174 210.163 365.98 211.779C362.83 212.162 359.593 211.837 356.396 211.837H356.408Z" fill="url(#paint1_linear_500_47)"/>
<path d="M708.008 142.257C708.008 163.565 708.008 184.873 708.008 206.181C708.008 208.715 706.7 209.98 704.085 209.977C694.832 209.977 685.578 209.918 676.325 210.023C674.256 210.046 673.599 209.413 673.646 207.373C673.692 205.251 674.674 202.304 673.169 201.194C671.472 199.95 669.414 202.444 667.502 203.234C654.494 208.582 641.056 210.715 627.211 207.82C616.313 205.542 606.333 201.078 597.55 193.934C588.5 186.576 581.688 177.677 577.259 166.983C572.127 154.585 570.418 141.681 573.202 128.528C575.522 117.589 579.927 107.499 587.239 98.734C594.627 89.8818 603.339 82.907 614.057 78.6581C625.531 74.1071 637.359 72.0495 649.774 74.1826C657.325 75.4788 664.503 77.6642 671.28 81.1575C673.239 82.1688 673.663 81.5934 673.715 79.6637C673.861 74.3628 673.901 74.3628 679.336 74.3628C687.723 74.3628 696.116 74.3628 704.503 74.3628C707.938 74.3628 708.008 74.4268 708.008 77.8154C708.008 99.2978 708.008 120.774 708.008 142.257ZM606.298 142.088C606.519 160.641 621.393 175.684 639.835 175.736C658.574 175.794 673.465 160.688 673.651 142.437C673.837 124.117 658.406 108.661 640.161 108.754C620.945 108.853 606.716 123.907 606.292 142.083L606.298 142.088Z" fill="url(#paint2_linear_500_47)"/>
<path d="M436.723 116.619C436.723 87.0338 436.757 57.4489 436.664 27.8583C436.659 25.2369 437.449 24.1965 440.018 23.4292C449.08 20.7207 458.066 17.7331 467.028 14.7107C470.771 13.4494 471.225 13.618 471.225 17.5123C471.225 38.3844 471.225 59.2624 471.225 80.1345C471.225 84.7147 471.26 84.7902 475.404 82.8722C483.727 79.0128 492.521 77.7805 501.612 77.7399C513.045 77.6934 523.623 80.7041 533.411 86.4293C543.036 92.0615 550.784 99.7222 556.393 109.347C562.42 119.688 565.193 130.94 565.164 142.914C565.112 163.786 565.152 184.664 565.146 205.536C565.146 209.221 565.112 209.262 561.363 209.262C552.284 209.262 543.205 209.273 534.126 209.262C530.871 209.262 530.546 208.913 530.546 205.734C530.546 184.426 530.557 163.123 530.546 141.815C530.54 129.65 525.012 120.559 514.265 115.166C500.379 108.197 482.262 112.469 474.113 128.482C472.067 132.498 471.207 136.695 471.213 141.158C471.242 162.635 471.23 184.112 471.225 205.594C471.225 209.064 471.021 209.268 467.557 209.268C458.391 209.268 449.225 209.268 440.059 209.268C436.839 209.268 436.717 209.145 436.717 205.902C436.717 176.143 436.717 146.384 436.717 116.624L436.723 116.619Z" fill="url(#paint3_linear_500_47)"/>
<path d="M1030.98 158.537C1016.28 158.537 1001.58 158.532 986.885 158.561C986.001 158.561 984.775 158.061 984.298 159.113C983.88 160.043 985.054 160.514 985.53 161.176C989.884 167.198 995.847 171.069 1002.79 173.33C1010.75 175.916 1018.6 175.335 1026.14 171.534C1029.36 169.906 1032.74 168.546 1035.18 165.681C1036.14 164.553 1037.12 164.937 1038.06 165.849C1045.44 172.975 1052.81 180.124 1060.27 187.169C1061.85 188.663 1061.03 189.482 1059.93 190.505C1053.53 196.504 1046.46 201.345 1038.25 204.751C1028.87 208.64 1019.25 210.349 1009.22 209.913C996.713 209.366 985.35 205.443 974.853 198.526C962.438 190.343 953.661 179.351 948.68 165.535C945.315 156.201 943.443 146.488 944.606 136.398C946.256 121.983 951.365 108.946 960.915 98.0308C970.494 87.0861 982.438 79.7684 996.847 76.374C1006.29 74.1536 1015.68 73.584 1025.05 75.6242C1044.26 79.8207 1059.52 89.8877 1070.09 106.749C1079.23 121.327 1081.58 137.119 1079.39 153.853C1078.8 158.34 1078.53 158.532 1074.03 158.532C1059.68 158.532 1045.32 158.532 1030.97 158.532L1030.98 158.537ZM1011.97 126.285C1021.12 126.285 1030.27 126.302 1039.43 126.273C1041.86 126.267 1042.08 125.837 1040.96 123.739C1040.76 123.361 1040.53 122.995 1040.31 122.629C1033.78 111.876 1017.36 105.017 1005.19 108.452C995.964 111.056 988.681 115.851 983.566 123.989C982.124 126.285 983.182 126.302 985.025 126.296C994.005 126.267 1002.98 126.285 1011.97 126.285H1011.97Z" fill="url(#paint4_linear_500_47)"/>
<path d="M1530.07 132.289C1530.62 173.022 1496.99 206.919 1455.83 206.855C1413.68 206.792 1380.93 173.777 1380.92 132.481C1380.9 91.2594 1413.43 58.2685 1455.47 58.0418C1496.95 57.821 1530.44 91.7128 1530.07 132.283V132.289ZM1455.42 177.48C1480.69 177.997 1500.8 157.108 1501 132.754C1501.21 108.458 1481 87.1792 1455.55 87.2605C1430.9 87.3361 1410.29 107.226 1410.22 132.353C1410.15 156.834 1430.22 177.869 1455.42 177.48H1455.42Z" fill="url(#paint5_linear_500_47)"/>
<path d="M1308.52 205.955C1299.13 205.211 1289.74 203.92 1280.63 199.962C1262.02 191.877 1249.13 178.358 1241.62 159.944C1235.8 145.651 1234.33 130.76 1238.05 115.387C1241.65 100.507 1248.62 87.7314 1259.8 77.4028C1270.46 67.5509 1282.95 61.3782 1297.53 59.0242C1309.41 57.1061 1320.87 58.1407 1331.99 61.9885C1346.41 66.9813 1358.38 75.6126 1367.15 88.3242C1368.22 89.8761 1368.4 90.9282 1366.63 92.1255C1359.65 96.8742 1352.71 101.71 1345.79 106.563C1344.01 107.807 1342.97 107.546 1341.54 105.779C1332.65 94.7759 1321.07 88.6846 1306.87 89.4867C1291.27 90.3702 1279.49 98.1238 1271.99 111.94C1265.89 123.158 1265.55 135.119 1269.64 146.733C1274.16 159.555 1283.36 168.535 1296.71 172.475C1315.07 177.898 1329.87 172.022 1341.8 157.706C1342.77 156.538 1343.54 156.061 1345 157.119C1350.02 160.764 1355.12 164.286 1360.21 167.837C1362.33 169.314 1364.47 170.749 1366.62 172.185C1368.04 173.138 1368.2 174.016 1367.12 175.556C1359.59 186.262 1349.71 193.97 1337.89 199.526C1328.62 203.885 1318.85 205.35 1308.51 205.955H1308.52Z" fill="url(#paint6_linear_500_47)"/>
<path d="M1087.37 85.9934C1087.37 65.6385 1087.4 45.2837 1087.32 24.9288C1087.32 22.8654 1087.85 21.8541 1089.91 21.3019C1095.91 19.6861 1101.96 18.3376 1108.03 16.9892C1111.71 16.1696 1115.41 15.3384 1119.02 14.2341C1121.52 13.4669 1121.92 14.6119 1121.92 16.5997C1121.91 21.0869 1121.92 25.5682 1121.92 30.0553C1121.92 44.3711 1121.92 58.6928 1121.92 73.0086C1121.92 75.4033 1123.08 76.6026 1125.4 76.6064C1134.31 76.6064 1143.22 76.6646 1152.12 76.5658C1154.21 76.5425 1154.77 77.2284 1154.76 79.2336C1154.67 88.5508 1154.65 97.8622 1154.77 107.179C1154.8 109.522 1153.98 110.086 1151.77 110.057C1142.78 109.946 1133.79 110.08 1124.79 109.964C1122.49 109.934 1121.85 110.69 1121.88 112.939C1121.99 122.6 1122.04 132.26 1121.89 141.92C1121.75 151.51 1125.63 159.27 1132.38 165.745C1138.06 171.185 1145.09 173.806 1152.78 174.765C1154.18 174.94 1154.75 175.283 1154.74 176.747C1154.7 187.099 1154.68 197.445 1154.74 207.797C1154.75 209.791 1153.74 210.017 1152.12 209.971C1143.36 209.709 1135.06 207.553 1127.15 203.897C1111.23 196.533 1099.78 184.821 1092.68 168.755C1088.65 159.653 1087.27 150.191 1087.34 140.339C1087.47 122.228 1087.37 104.116 1087.37 85.9992V85.9934Z" fill="url(#paint7_linear_500_47)"/>
<path d="M721.063 85.139C721.063 65.1271 721.092 45.1152 721.016 25.1091C721.01 22.9876 721.475 21.7786 723.713 21.2846C729.857 19.9361 735.966 18.4481 742.074 16.9718C745.585 16.1232 749.078 15.1816 752.589 14.3214C755.431 13.6239 755.658 13.8099 755.658 16.8323C755.664 34.6007 755.658 52.369 755.658 70.1374C755.658 71.4335 755.768 72.7355 755.629 74.0142C755.402 76.1183 756.309 76.6588 758.314 76.6414C767.393 76.5542 776.472 76.6763 785.551 76.5484C787.87 76.5135 788.486 77.2459 788.457 79.4953C788.341 88.6381 788.323 97.7809 788.463 106.924C788.503 109.51 787.591 110.091 785.173 110.057C776.268 109.929 767.358 110.057 758.454 109.964C756.315 109.94 755.594 110.609 755.611 112.771C755.704 122.774 755.379 132.789 755.722 142.786C756.163 155.666 762.522 165.076 773.938 171.017C777.931 173.097 782.214 174.446 786.742 174.777C787.963 174.864 788.416 175.329 788.41 176.515C788.393 187.035 788.393 197.562 788.41 208.082C788.41 209.558 787.672 210.029 786.295 209.971C778.651 209.657 771.351 208.064 764.196 205.24C759.168 203.252 754.519 200.735 750.113 197.748C744.231 193.76 739.273 188.779 734.873 183.17C731.269 178.578 728.659 173.487 726.253 168.244C722.632 160.345 721.231 151.906 721.127 143.367C720.883 123.966 721.051 104.552 721.051 85.1449L721.063 85.139Z" fill="url(#paint8_linear_500_47)"/>
<path d="M1202.26 211.999C1188.98 212.098 1179.23 200.741 1179.2 189.296C1179.18 176.718 1189.42 166.407 1201.99 166.297C1215 166.186 1225.07 176.829 1225.22 189.163C1225.37 201.549 1214.7 211.999 1202.26 211.994V211.999Z" fill="url(#paint9_linear_500_47)"/>
<path d="M0 102.948C0.226682 93.5204 1.56352 84.4182 4.06283 75.3568C7.4805 62.9532 13.1592 51.7761 20.7501 41.5347C28.0446 31.6944 37.0305 23.6617 47.2951 16.8555C59.8382 8.52637 73.6425 3.61494 88.278 1.22025C102.024 -1.02913 115.805 -0.116594 129.342 3.52775C137.45 5.70738 145.309 8.60774 152.597 12.6822C163.031 18.5178 172.4 25.7484 180.392 34.7808C187.024 42.2729 192.581 50.4392 196.777 59.4309C200.788 68.0158 203.984 76.9261 205.054 86.4816C205.501 90.498 206.094 94.4794 206.269 98.5423C206.803 111.329 205.42 123.826 201.177 135.927C199.276 141.356 197.422 146.837 194.255 151.719C193.017 153.632 193.017 155.463 193.842 157.561C197.911 167.889 201.956 178.23 205.81 188.639C206.629 190.848 206.763 193.348 204.932 195.481C203.043 197.678 200.7 198.021 198.108 197.393C190.564 195.562 183.275 192.859 175.719 191.057C171.796 190.122 167.971 188.744 164.135 187.465C163.118 187.128 162.519 187.553 161.798 188.058C147.238 198.166 131.051 204.083 113.451 205.629C99.955 206.809 86.4762 205.92 73.4274 201.845C57.6353 196.91 43.5519 188.884 31.6831 177.352C22.5403 168.465 15.1702 158.247 9.77637 146.587C3.33048 132.667 0.145309 118.124 0 102.948ZM103.367 167.628C138.566 168.517 168.326 138.677 168.14 103.303C167.948 66.5336 138.816 38.4716 103.576 38.489C66.656 38.5123 38.7277 67.3532 38.5126 103.134C38.2976 138.868 67.9406 168.459 103.367 167.628Z" fill="url(#paint10_linear_500_47)"/>
<path d="M103.367 167.622C67.9406 168.453 38.2976 138.863 38.5126 103.128C38.7277 67.3474 66.656 38.5065 103.576 38.4833C138.816 38.46 167.948 66.5279 168.14 103.297C168.326 138.671 138.566 168.511 103.367 167.622Z" fill="#FCFDFC"/>
<path d="M86.5225 78.9778C98.4902 78.5419 107.807 88.7077 107.889 99.8732C107.97 110.614 98.6587 121.088 86.6504 121.135C75.2756 121.176 65.3946 111.161 65.3307 100.024C65.2726 89.318 74.613 78.4489 86.5225 78.972V78.9778Z" fill="url(#paint11_linear_500_47)"/>
<path d="M136.985 103.57C137.491 108.284 132.894 113.062 127.726 112.922C122.693 112.788 118.421 108.644 118.421 103.657C118.421 98.5132 122.658 94.4504 127.866 94.3341C132.184 94.2353 137.433 98.0715 136.985 103.57Z" fill="url(#paint12_linear_500_47)"/>
<defs>
<linearGradient id="paint0_linear_500_47" x1="-1.3482" y1="215.498" x2="1496.63" y2="34.4031" gradientUnits="userSpaceOnUse">
<stop stop-color="#7549E0"/>
<stop offset="1" stop-color="#5554EB"/>
</linearGradient>
<linearGradient id="paint1_linear_500_47" x1="-7.06208" y1="168.25" x2="1490.93" y2="-12.8457" gradientUnits="userSpaceOnUse">
<stop stop-color="#7549E0"/>
<stop offset="1" stop-color="#5554EB"/>
</linearGradient>
<linearGradient id="paint2_linear_500_47" x1="-0.459207" y1="222.845" x2="1497.52" y2="41.7439" gradientUnits="userSpaceOnUse">
<stop stop-color="#7549E0"/>
<stop offset="1" stop-color="#5554EB"/>
</linearGradient>
<linearGradient id="paint3_linear_500_47" x1="-6.26563" y1="174.818" x2="1491.72" y2="-6.27759" gradientUnits="userSpaceOnUse">
<stop stop-color="#7549E0"/>
<stop offset="1" stop-color="#5554EB"/>
</linearGradient>
<linearGradient id="paint4_linear_500_47" x1="4.5219" y1="264.066" x2="1502.5" y2="82.9709" gradientUnits="userSpaceOnUse">
<stop stop-color="#7549E0"/>
<stop offset="1" stop-color="#5554EB"/>
</linearGradient>
<linearGradient id="paint5_linear_500_47" x1="9.74808" y1="307.27" x2="1507.73" y2="126.169" gradientUnits="userSpaceOnUse">
<stop stop-color="#7549E0"/>
<stop offset="1" stop-color="#5554EB"/>
</linearGradient>
<linearGradient id="paint6_linear_500_47" x1="7.56197" y1="289.211" x2="1505.54" y2="108.11" gradientUnits="userSpaceOnUse">
<stop stop-color="#7549E0"/>
<stop offset="1" stop-color="#5554EB"/>
</linearGradient>
<linearGradient id="paint7_linear_500_47" x1="2.70803" y1="249.047" x2="1500.69" y2="67.9518" gradientUnits="userSpaceOnUse">
<stop stop-color="#7549E0"/>
<stop offset="1" stop-color="#5554EB"/>
</linearGradient>
<linearGradient id="paint8_linear_500_47" x1="-2.56322" y1="205.443" x2="1495.42" y2="24.3477" gradientUnits="userSpaceOnUse">
<stop stop-color="#7549E0"/>
<stop offset="1" stop-color="#5554EB"/>
</linearGradient>
<linearGradient id="paint9_linear_500_47" x1="12.8465" y1="332.931" x2="1510.83" y2="151.836" gradientUnits="userSpaceOnUse">
<stop stop-color="#7549E0"/>
<stop offset="1" stop-color="#5554EB"/>
</linearGradient>
<linearGradient id="paint10_linear_500_47" x1="14.3972" y1="114.311" x2="1397.79" y2="-44.4009" gradientUnits="userSpaceOnUse">
<stop stop-color="#7549E0"/>
<stop offset="1" stop-color="#5554EB"/>
</linearGradient>
<linearGradient id="paint11_linear_500_47" x1="-13.8451" y1="112.143" x2="1484.14" y2="-68.9522" gradientUnits="userSpaceOnUse">
<stop stop-color="#7549E0"/>
<stop offset="1" stop-color="#5554EB"/>
</linearGradient>
<linearGradient id="paint12_linear_500_47" x1="-12.8162" y1="120.652" x2="1485.17" y2="-60.4428" gradientUnits="userSpaceOnUse">
<stop stop-color="#7549E0"/>
<stop offset="1" stop-color="#5554EB"/>
</linearGradient>
</defs>
</svg>
