<svg width="1440" height="740" viewBox="0 0 1440 740" fill="none" xmlns="http://www.w3.org/2000/svg">
<g clip-path="url(#clip0_641_57)">
<path opacity="0.3" d="M-64 606.368C94.0722 661.785 436.452 758.451 541.394 701.774C672.572 630.928 273.55 143.036 127.004 311.649C-19.5422 480.262 596.208 258.421 672.5 74.2214C748.792 -109.978 624.6 -155.742 490.5 -11.8639C377.859 108.991 1068.66 -237.002 1241 -37.6895C1413.34 161.624 1435.09 220.927 1625 192.589" stroke="white"/>
<g opacity="0.1">
<path d="M503.558 409.476C503.558 389.639 503.558 369.801 503.558 349.964C503.558 346.424 503.79 346.546 507.208 345.61C515.52 343.338 524.046 342.082 532.393 339.955C538.705 338.345 538.066 337.659 538.072 343.989C538.095 364.518 538.072 385.041 538.077 405.571C538.077 408.047 538.333 408.186 540.524 407.088C551.696 401.49 563.518 398.532 576.003 399.555C586.279 400.398 596.073 403.17 605.164 408.419C613.853 413.435 621.072 419.915 626.931 427.931C632.069 434.952 635.434 442.828 637.637 451.244C640.049 460.48 640.619 469.826 638.596 479.108C637.102 485.955 634.993 492.645 631.575 498.952C626.588 508.159 619.944 515.779 611.592 521.98C606.727 525.59 601.403 528.38 595.736 530.583C586.733 534.076 577.421 535.378 567.825 534.919C556.008 534.349 545.151 530.687 535.247 524.34C523.076 516.546 514.13 505.996 508.702 492.552C505.313 484.159 503.569 475.452 503.564 466.408C503.546 447.437 503.564 428.46 503.564 409.488L503.558 409.476ZM605.251 466.199C605.018 447.356 590.022 432.772 571.899 432.679C553.189 432.581 538.124 447.512 538.101 466.211C538.077 484.717 553.248 499.736 571.679 499.754C589.836 499.771 605.169 484.857 605.251 466.199Z" fill="url(#paint0_linear_641_57)"/>
<path d="M57.4075 536.837C42.7895 537.429 29.113 533.71 16.4421 526.735C2.58546 519.103 -8.51033 508.385 -16.4907 494.651C-21.4021 486.194 -25.1336 477.306 -26.889 467.582C-28.1444 460.608 -29.458 453.668 -28.9756 446.577C-28.1909 434.934 -25.9183 423.658 -21.0824 412.877C-13.7996 396.648 -2.64565 383.803 12.2688 374.364C23.9226 366.988 36.8028 362.78 50.6652 361.548C59.4651 360.763 68.1662 361.309 76.6348 363.408C93.0315 367.465 107.44 375.224 119.21 387.593C122.192 390.726 124.825 394.108 127.568 397.416C129.376 399.601 129.109 400.235 126.755 401.839C119.559 406.739 112.427 411.732 105.266 416.672C104.063 417.503 102.819 418.288 101.587 419.078C98.8089 420.857 98.7275 420.77 96.6758 418.125C89.0965 408.355 79.3434 402.176 67.0677 399.793C53.0308 397.067 40.2204 400.025 28.7178 408.035C21.0339 413.388 15.5702 420.805 11.8213 429.494C7.11328 440.41 6.60178 451.738 9.59514 462.886C12.542 473.871 18.7089 483.2 28.1656 490.099C38.9185 497.94 50.9152 501.067 64.0569 499.719C69.753 499.132 75.0306 496.853 80.1571 494.377C86.9692 491.088 92.5199 486.217 96.9896 480.189C98.4137 478.271 99.3088 478.126 101.308 479.533C109.341 485.171 117.211 491.053 125.517 496.301C126.168 496.714 126.731 497.266 127.377 497.702C128.748 498.632 128.743 499.597 127.778 500.905C121.111 509.943 113.177 517.574 103.709 523.724C92.4734 531.024 80.1745 535.163 66.9805 536.778C63.8302 537.162 60.5927 536.837 57.3959 536.837H57.4075Z" fill="url(#paint1_linear_641_57)"/>
<path d="M409.008 467.257C409.008 488.565 409.008 509.873 409.008 531.181C409.008 533.715 407.701 534.981 405.085 534.977C395.832 534.977 386.578 534.919 377.325 535.023C375.256 535.046 374.599 534.413 374.646 532.373C374.692 530.251 375.675 527.304 374.169 526.194C372.472 524.95 370.414 527.444 368.502 528.234C355.494 533.582 342.056 535.715 328.211 532.82C317.313 530.542 307.333 526.078 298.55 518.935C289.501 511.576 282.688 502.677 278.259 491.983C273.127 479.585 271.418 466.682 274.202 453.528C276.522 442.589 280.927 432.499 288.239 423.734C295.627 414.882 304.339 407.907 315.057 403.658C326.531 399.107 338.359 397.05 350.774 399.183C358.325 400.479 365.503 402.664 372.28 406.158C374.239 407.169 374.663 406.593 374.715 404.664C374.861 399.363 374.901 399.363 380.336 399.363C388.723 399.363 397.116 399.363 405.503 399.363C408.939 399.363 409.008 399.427 409.008 402.815C409.008 424.298 409.008 445.775 409.008 467.257ZM307.298 467.088C307.519 485.641 322.393 500.684 340.835 500.736C359.574 500.794 374.466 485.688 374.652 467.437C374.838 449.117 359.406 433.662 341.161 433.755C321.945 433.853 307.716 448.907 307.292 467.083L307.298 467.088Z" fill="url(#paint2_linear_641_57)"/>
<path d="M137.723 441.619C137.723 412.034 137.758 382.449 137.665 352.858C137.659 350.237 138.449 349.196 141.018 348.429C150.08 345.721 159.066 342.733 168.028 339.711C171.771 338.449 172.225 338.618 172.225 342.512C172.225 363.384 172.225 384.262 172.225 405.135C172.225 409.715 172.26 409.79 176.404 407.872C184.727 404.013 193.521 402.781 202.612 402.74C214.045 402.693 224.623 405.704 234.411 411.429C244.036 417.061 251.784 424.722 257.393 434.347C263.421 444.688 266.193 455.94 266.164 467.914C266.112 488.786 266.152 509.664 266.147 530.536C266.147 534.221 266.112 534.262 262.363 534.262C253.284 534.262 244.205 534.273 235.126 534.262C231.871 534.262 231.546 533.913 231.546 530.734C231.546 509.426 231.557 488.123 231.546 466.815C231.54 454.65 226.012 445.559 215.265 440.166C201.38 433.197 183.262 437.469 175.113 453.482C173.068 457.498 172.207 461.695 172.213 466.158C172.242 487.635 172.231 509.112 172.225 530.594C172.225 534.064 172.021 534.268 168.557 534.268C159.391 534.268 150.225 534.268 141.059 534.268C137.839 534.268 137.717 534.145 137.717 530.902C137.717 501.143 137.717 471.384 137.717 441.624L137.723 441.619Z" fill="url(#paint3_linear_641_57)"/>
<path d="M731.983 483.537C717.284 483.537 702.584 483.532 687.885 483.561C687.001 483.561 685.775 483.061 685.298 484.113C684.88 485.043 686.054 485.514 686.53 486.176C690.884 492.198 696.847 496.069 703.793 498.33C711.75 500.916 719.597 500.335 727.136 496.534C730.361 494.906 733.744 493.546 736.18 490.681C737.139 489.553 738.115 489.937 739.062 490.849C746.444 497.975 753.808 505.124 761.272 512.169C762.853 513.663 762.027 514.482 760.934 515.505C754.529 521.504 747.461 526.345 739.249 529.751C729.873 533.64 720.248 535.349 710.216 534.913C697.713 534.366 686.35 530.443 675.853 523.526C663.438 515.343 654.661 504.351 649.68 490.535C646.315 481.201 644.443 471.488 645.606 461.398C647.256 446.983 652.365 433.946 661.915 423.031C671.494 412.086 683.438 404.768 697.847 401.374C707.286 399.154 716.685 398.584 726.049 400.624C745.258 404.821 760.516 414.888 771.089 431.749C780.226 446.327 782.58 462.119 780.388 478.853C779.801 483.34 779.528 483.532 775.029 483.532C760.679 483.532 746.322 483.532 731.971 483.532L731.983 483.537ZM712.965 451.285C722.12 451.285 731.274 451.302 740.428 451.273C742.858 451.267 743.079 450.837 741.963 448.739C741.759 448.361 741.527 447.995 741.306 447.629C734.785 436.876 718.359 430.017 706.188 433.452C696.964 436.056 689.681 440.851 684.566 448.989C683.124 451.285 684.182 451.302 686.025 451.296C695.005 451.267 703.985 451.285 712.971 451.285H712.965Z" fill="url(#paint4_linear_641_57)"/>
<path d="M788.374 410.993C788.374 390.639 788.403 370.284 788.322 349.929C788.316 347.865 788.851 346.854 790.909 346.302C796.907 344.686 802.963 343.338 809.026 341.989C812.711 341.17 816.407 340.339 820.017 339.234C822.516 338.467 822.923 339.612 822.917 341.6C822.906 346.087 822.917 350.568 822.917 355.055C822.917 369.371 822.917 383.693 822.917 398.009C822.917 400.403 824.08 401.603 826.405 401.606C835.309 401.606 844.219 401.665 853.124 401.566C855.211 401.543 855.774 402.228 855.757 404.234C855.67 413.551 855.647 422.862 855.769 432.179C855.798 434.522 854.984 435.086 852.769 435.057C843.778 434.946 834.786 435.08 825.794 434.964C823.487 434.935 822.853 435.69 822.877 437.94C822.987 447.6 823.039 457.26 822.894 466.92C822.754 476.51 826.625 484.27 833.379 490.745C839.058 496.185 846.091 498.806 853.781 499.765C855.182 499.94 855.751 500.283 855.74 501.747C855.699 512.099 855.681 522.445 855.74 532.797C855.751 534.791 854.74 535.017 853.124 534.971C844.365 534.709 836.059 532.553 828.154 528.897C812.228 521.533 800.778 509.821 793.675 493.756C789.653 484.653 788.27 475.191 788.34 465.339C788.467 447.228 788.374 429.116 788.374 410.999V410.993Z" fill="url(#paint5_linear_641_57)"/>
<path d="M422.063 410.139C422.063 390.127 422.092 370.115 422.016 350.109C422.01 347.988 422.475 346.779 424.713 346.285C430.857 344.936 436.966 343.448 443.074 341.972C446.585 341.123 450.078 340.182 453.589 339.321C456.431 338.624 456.658 338.81 456.658 341.832C456.664 359.601 456.658 377.369 456.658 395.137C456.658 396.434 456.768 397.735 456.629 399.014C456.402 401.118 457.309 401.659 459.314 401.641C468.393 401.554 477.472 401.676 486.551 401.548C488.87 401.514 489.486 402.246 489.457 404.495C489.341 413.638 489.323 422.781 489.463 431.924C489.504 434.51 488.591 435.091 486.173 435.057C477.269 434.929 468.358 435.057 459.454 434.964C457.315 434.94 456.594 435.609 456.611 437.771C456.704 447.774 456.379 457.789 456.722 467.786C457.164 480.666 463.522 490.076 474.938 496.017C478.931 498.097 483.215 499.446 487.742 499.777C488.963 499.864 489.416 500.329 489.41 501.515C489.393 512.035 489.393 522.562 489.41 533.082C489.41 534.558 488.672 535.029 487.295 534.971C479.652 534.657 472.351 533.064 465.196 530.24C460.169 528.252 455.519 525.735 451.113 522.748C445.231 518.76 440.273 513.779 435.873 508.17C432.269 503.578 429.66 498.487 427.253 493.244C423.632 485.345 422.231 476.906 422.127 468.367C421.883 448.966 422.051 429.552 422.051 410.145L422.063 410.139Z" fill="url(#paint6_linear_641_57)"/>
</g>
</g>
<defs>
<linearGradient id="paint0_linear_641_57" x1="-300.348" y1="540.498" x2="1197.63" y2="359.403" gradientUnits="userSpaceOnUse">
<stop stop-color="#7549E0"/>
<stop offset="1" stop-color="#5554EB"/>
</linearGradient>
<linearGradient id="paint1_linear_641_57" x1="-306.062" y1="493.25" x2="1191.93" y2="312.154" gradientUnits="userSpaceOnUse">
<stop stop-color="#7549E0"/>
<stop offset="1" stop-color="#5554EB"/>
</linearGradient>
<linearGradient id="paint2_linear_641_57" x1="-299.459" y1="547.845" x2="1198.52" y2="366.744" gradientUnits="userSpaceOnUse">
<stop stop-color="#7549E0"/>
<stop offset="1" stop-color="#5554EB"/>
</linearGradient>
<linearGradient id="paint3_linear_641_57" x1="-305.266" y1="499.818" x2="1192.72" y2="318.722" gradientUnits="userSpaceOnUse">
<stop stop-color="#7549E0"/>
<stop offset="1" stop-color="#5554EB"/>
</linearGradient>
<linearGradient id="paint4_linear_641_57" x1="-294.478" y1="589.066" x2="1203.5" y2="407.971" gradientUnits="userSpaceOnUse">
<stop stop-color="#7549E0"/>
<stop offset="1" stop-color="#5554EB"/>
</linearGradient>
<linearGradient id="paint5_linear_641_57" x1="-296.292" y1="574.047" x2="1201.69" y2="392.952" gradientUnits="userSpaceOnUse">
<stop stop-color="#7549E0"/>
<stop offset="1" stop-color="#5554EB"/>
</linearGradient>
<linearGradient id="paint6_linear_641_57" x1="-301.563" y1="530.443" x2="1196.42" y2="349.348" gradientUnits="userSpaceOnUse">
<stop stop-color="#7549E0"/>
<stop offset="1" stop-color="#5554EB"/>
</linearGradient>
<clipPath id="clip0_641_57">
<rect width="1440" height="740" fill="white"/>
</clipPath>
</defs>
</svg>
