<svg width="856" height="212" viewBox="0 0 856 212" fill="none" xmlns="http://www.w3.org/2000/svg">
<g opacity="0.1">
<path d="M503.558 84.4764C503.558 64.6389 503.558 44.8013 503.558 24.9638C503.558 21.424 503.79 21.5461 507.208 20.6103C515.52 18.3377 524.046 17.0822 532.393 14.9549C538.705 13.3449 538.066 12.659 538.072 18.9887C538.095 39.5179 538.072 60.0413 538.077 80.5705C538.077 83.0466 538.333 83.1861 540.524 82.0875C551.696 76.4903 563.518 73.5318 576.003 74.5547C586.279 75.3975 596.073 78.17 605.164 83.4186C613.853 88.4346 621.072 94.9154 626.931 102.931C632.069 109.952 635.434 117.828 637.637 126.244C640.049 135.48 640.619 144.826 638.596 154.108C637.102 160.955 634.993 167.645 631.575 173.952C626.588 183.159 619.944 190.779 611.592 196.98C606.727 200.59 601.403 203.38 595.736 205.583C586.733 209.076 577.421 210.378 567.825 209.919C556.008 209.349 545.151 205.687 535.247 199.34C523.076 191.546 514.13 180.996 508.702 167.552C505.313 159.159 503.569 150.452 503.564 141.408C503.546 122.437 503.564 103.46 503.564 84.4881L503.558 84.4764ZM605.251 141.199C605.018 122.356 590.022 107.772 571.899 107.679C553.189 107.581 538.124 122.512 538.101 141.211C538.077 159.717 553.248 174.736 571.679 174.754C589.836 174.771 605.169 159.857 605.251 141.199Z" fill="url(#paint0_linear_500_68)"/>
<path d="M57.4075 211.837C42.7894 212.429 29.113 208.71 16.4421 201.735C2.58542 194.103 -8.51038 183.385 -16.4907 169.651C-21.4022 161.194 -25.1337 152.306 -26.889 142.582C-28.1445 135.608 -29.4581 128.668 -28.9757 121.577C-28.191 109.934 -25.9184 98.6585 -21.0825 87.8766C-13.7996 71.6485 -2.64569 58.8032 12.2688 49.3639C23.9226 41.9881 36.8027 37.7799 50.6652 36.5477C59.4651 35.763 68.1662 36.3094 76.6348 38.4077C93.0314 42.4647 107.44 50.2242 119.21 62.5929C122.192 65.7257 124.825 69.1085 127.568 72.4157C129.376 74.6012 129.109 75.2347 126.755 76.8389C119.559 81.7387 112.427 86.7315 105.266 91.672C104.063 92.5032 102.819 93.2879 101.587 94.0784C98.8089 95.8569 98.7275 95.7698 96.6757 93.1251C89.0964 83.3546 79.3433 77.176 67.0676 74.793C53.0308 72.067 40.2204 75.0255 28.7177 83.0349C21.0338 88.3881 15.5702 95.8046 11.8212 104.494C7.11323 115.41 6.60173 126.738 9.5951 137.886C12.542 148.871 18.7089 158.2 28.1656 165.099C38.9184 172.94 50.9151 176.067 64.0568 174.719C69.7529 174.132 75.0306 171.853 80.1571 169.377C86.9691 166.088 92.5199 161.217 96.9896 155.189C98.4136 153.271 99.3087 153.126 101.308 154.533C109.341 160.171 117.211 166.053 125.517 171.301C126.168 171.714 126.731 172.266 127.377 172.702C128.748 173.632 128.742 174.597 127.778 175.905C121.111 184.943 113.177 192.574 103.709 198.724C92.4734 206.024 80.1745 210.163 66.9804 211.778C63.8301 212.162 60.5927 211.837 57.3959 211.837H57.4075Z" fill="url(#paint1_linear_500_68)"/>
<path d="M409.008 142.257C409.008 163.565 409.008 184.873 409.008 206.181C409.008 208.715 407.7 209.981 405.085 209.977C395.832 209.977 386.578 209.919 377.325 210.023C375.256 210.046 374.599 209.413 374.646 207.373C374.692 205.251 375.674 202.304 374.169 201.194C372.472 199.95 370.414 202.444 368.502 203.234C355.494 208.582 342.056 210.715 328.211 207.82C317.313 205.542 307.333 201.078 298.55 193.935C289.5 186.576 282.688 177.677 278.259 166.983C273.127 154.585 271.418 141.682 274.202 128.528C276.522 117.589 280.927 107.499 288.239 98.7341C295.627 89.8819 304.339 82.907 315.057 78.6582C326.531 74.1071 338.359 72.0496 350.774 74.1827C358.325 75.4788 365.503 77.6643 372.28 81.1575C374.239 82.1689 374.663 81.5934 374.715 79.6637C374.861 74.3629 374.901 74.3629 380.336 74.3629C388.723 74.3629 397.116 74.3629 405.503 74.3629C408.938 74.3629 409.008 74.4268 409.008 77.8154C409.008 99.2979 409.008 120.775 409.008 142.257ZM307.298 142.088C307.519 160.641 322.393 175.684 340.835 175.736C359.574 175.794 374.465 160.688 374.651 142.437C374.837 124.117 359.406 108.662 341.161 108.755C321.945 108.853 307.716 123.907 307.292 142.083L307.298 142.088Z" fill="url(#paint2_linear_500_68)"/>
<path d="M137.723 116.619C137.723 87.0338 137.757 57.4489 137.664 27.8583C137.659 25.2369 138.449 24.1965 141.018 23.4292C150.08 20.7207 159.066 17.7331 168.028 14.7107C171.771 13.4494 172.225 13.618 172.225 17.5123C172.225 38.3844 172.225 59.2624 172.225 80.1345C172.225 84.7147 172.26 84.7902 176.404 82.8722C184.727 79.0128 193.521 77.7805 202.612 77.7399C214.045 77.6934 224.623 80.7041 234.411 86.4293C244.036 92.0615 251.784 99.7222 257.393 109.347C263.42 119.688 266.193 130.94 266.164 142.914C266.112 163.786 266.152 184.664 266.146 205.536C266.146 209.221 266.112 209.262 262.363 209.262C253.284 209.262 244.205 209.273 235.126 209.262C231.871 209.262 231.546 208.913 231.546 205.734C231.546 184.426 231.557 163.123 231.546 141.815C231.54 129.65 226.012 120.559 215.265 115.166C201.379 108.197 183.262 112.469 175.113 128.482C173.067 132.498 172.207 136.695 172.213 141.158C172.242 162.635 172.23 184.112 172.225 205.594C172.225 209.064 172.021 209.268 168.557 209.268C159.391 209.268 150.225 209.268 141.059 209.268C137.839 209.268 137.717 209.145 137.717 205.902C137.717 176.143 137.717 146.384 137.717 116.624L137.723 116.619Z" fill="url(#paint3_linear_500_68)"/>
<path d="M731.983 158.537C717.284 158.537 702.584 158.532 687.885 158.561C687.001 158.561 685.775 158.061 685.298 159.113C684.88 160.043 686.054 160.514 686.53 161.176C690.884 167.198 696.847 171.069 703.793 173.33C711.75 175.916 719.597 175.335 727.136 171.534C730.361 169.906 733.744 168.546 736.18 165.681C737.139 164.553 738.115 164.937 739.062 165.849C746.444 172.975 753.808 180.124 761.272 187.169C762.853 188.663 762.027 189.482 760.934 190.505C754.529 196.504 747.461 201.345 739.249 204.751C729.873 208.64 720.248 210.349 710.216 209.913C697.713 209.366 686.35 205.443 675.853 198.526C663.438 190.343 654.661 179.351 649.68 165.535C646.315 156.201 644.443 146.488 645.606 136.398C647.256 121.983 652.365 108.946 661.915 98.0308C671.494 87.0861 683.438 79.7684 697.847 76.374C707.286 74.1536 716.685 73.584 726.049 75.6242C745.258 79.8207 760.516 89.8877 771.089 106.749C780.226 121.327 782.58 137.119 780.388 153.853C779.801 158.34 779.528 158.532 775.029 158.532C760.679 158.532 746.322 158.532 731.971 158.532L731.983 158.537ZM712.965 126.285C722.12 126.285 731.274 126.302 740.428 126.273C742.858 126.267 743.079 125.837 741.963 123.739C741.759 123.361 741.527 122.995 741.306 122.629C734.785 111.876 718.359 105.017 706.188 108.452C696.964 111.056 689.681 115.851 684.566 123.989C683.124 126.285 684.182 126.302 686.025 126.296C695.005 126.267 703.985 126.285 712.971 126.285H712.965Z" fill="url(#paint4_linear_500_68)"/>
<path d="M788.374 85.9934C788.374 65.6386 788.403 45.2837 788.322 24.9289C788.316 22.8655 788.851 21.8542 790.909 21.302C796.907 19.6861 802.963 18.3377 809.026 16.9892C812.711 16.1697 816.407 15.3385 820.017 14.2342C822.516 13.4669 822.923 14.612 822.917 16.5998C822.906 21.0869 822.917 25.5682 822.917 30.0554C822.917 44.3712 822.917 58.6928 822.917 73.0087C822.917 75.4033 824.08 76.6026 826.405 76.6065C835.309 76.6065 844.219 76.6646 853.124 76.5658C855.211 76.5426 855.774 77.2284 855.757 79.2337C855.67 88.5509 855.647 97.8623 855.769 107.179C855.798 109.522 854.984 110.086 852.769 110.057C843.778 109.946 834.786 110.08 825.794 109.964C823.487 109.935 822.853 110.69 822.877 112.94C822.987 122.6 823.039 132.26 822.894 141.92C822.754 151.51 826.625 159.27 833.379 165.745C839.058 171.185 846.091 173.806 853.781 174.765C855.182 174.94 855.751 175.283 855.74 176.747C855.699 187.099 855.681 197.445 855.74 207.797C855.751 209.791 854.74 210.017 853.124 209.971C844.365 209.709 836.059 207.553 828.154 203.897C812.228 196.533 800.778 184.821 793.675 168.756C789.653 159.653 788.27 150.191 788.34 140.339C788.467 122.228 788.374 104.116 788.374 85.9993V85.9934Z" fill="url(#paint5_linear_500_68)"/>
<path d="M422.063 85.139C422.063 65.1271 422.092 45.1152 422.016 25.1091C422.01 22.9876 422.475 21.7786 424.713 21.2846C430.857 19.9361 436.966 18.4481 443.074 16.9718C446.585 16.1232 450.078 15.1816 453.589 14.3214C456.431 13.6239 456.658 13.8099 456.658 16.8323C456.664 34.6007 456.658 52.369 456.658 70.1374C456.658 71.4335 456.768 72.7355 456.629 74.0142C456.402 76.1183 457.309 76.6588 459.314 76.6414C468.393 76.5542 477.472 76.6763 486.551 76.5484C488.87 76.5135 489.486 77.2459 489.457 79.4953C489.341 88.6381 489.323 97.7809 489.463 106.924C489.503 109.51 488.591 110.091 486.173 110.057C477.268 109.929 468.358 110.057 459.454 109.964C457.315 109.94 456.594 110.609 456.611 112.771C456.704 122.774 456.379 132.789 456.722 142.786C457.163 155.666 463.522 165.076 474.938 171.017C478.931 173.097 483.214 174.446 487.742 174.777C488.963 174.864 489.416 175.329 489.41 176.515C489.393 187.035 489.393 197.562 489.41 208.082C489.41 209.558 488.672 210.029 487.295 209.971C479.651 209.657 472.351 208.064 465.196 205.24C460.168 203.252 455.519 200.735 451.113 197.748C445.231 193.76 440.273 188.779 435.873 183.17C432.269 178.578 429.659 173.487 427.253 168.244C423.632 160.345 422.231 151.906 422.127 143.367C421.883 123.966 422.051 104.552 422.051 85.1449L422.063 85.139Z" fill="url(#paint6_linear_500_68)"/>
</g>
<defs>
<linearGradient id="paint0_linear_500_68" x1="-300.348" y1="215.498" x2="1197.63" y2="34.4031" gradientUnits="userSpaceOnUse">
<stop stop-color="#7549E0"/>
<stop offset="1" stop-color="#5554EB"/>
</linearGradient>
<linearGradient id="paint1_linear_500_68" x1="-306.062" y1="168.25" x2="1191.93" y2="-12.8457" gradientUnits="userSpaceOnUse">
<stop stop-color="#7549E0"/>
<stop offset="1" stop-color="#5554EB"/>
</linearGradient>
<linearGradient id="paint2_linear_500_68" x1="-299.459" y1="222.845" x2="1198.52" y2="41.744" gradientUnits="userSpaceOnUse">
<stop stop-color="#7549E0"/>
<stop offset="1" stop-color="#5554EB"/>
</linearGradient>
<linearGradient id="paint3_linear_500_68" x1="-305.266" y1="174.818" x2="1192.72" y2="-6.27759" gradientUnits="userSpaceOnUse">
<stop stop-color="#7549E0"/>
<stop offset="1" stop-color="#5554EB"/>
</linearGradient>
<linearGradient id="paint4_linear_500_68" x1="-294.478" y1="264.066" x2="1203.5" y2="82.9709" gradientUnits="userSpaceOnUse">
<stop stop-color="#7549E0"/>
<stop offset="1" stop-color="#5554EB"/>
</linearGradient>
<linearGradient id="paint5_linear_500_68" x1="-296.292" y1="249.047" x2="1201.69" y2="67.9518" gradientUnits="userSpaceOnUse">
<stop stop-color="#7549E0"/>
<stop offset="1" stop-color="#5554EB"/>
</linearGradient>
<linearGradient id="paint6_linear_500_68" x1="-301.563" y1="205.443" x2="1196.42" y2="24.3477" gradientUnits="userSpaceOnUse">
<stop stop-color="#7549E0"/>
<stop offset="1" stop-color="#5554EB"/>
</linearGradient>
</defs>
</svg>
