<svg width="337" height="94" viewBox="0 0 337 94" fill="none" xmlns="http://www.w3.org/2000/svg">
<g opacity="0.1">
<path d="M182.601 37.632C182.601 28.9415 182.601 20.2509 182.601 11.5604C182.601 10.0097 182.703 10.0632 184.201 9.65324C187.842 8.65764 191.577 8.10764 195.234 7.1757C197.999 6.47037 197.719 6.16991 197.721 8.94283C197.732 17.9364 197.721 26.9273 197.724 35.9209C197.724 37.0056 197.836 37.0667 198.796 36.5854C203.69 34.1334 208.869 32.8373 214.339 33.2854C218.84 33.6547 223.131 34.8692 227.113 37.1686C230.92 39.366 234.083 42.2051 236.649 45.7165C238.9 48.7924 240.374 52.2426 241.339 55.9297C242.396 59.9757 242.646 64.0702 241.76 68.1366C241.105 71.1362 240.181 74.067 238.684 76.8297C236.499 80.863 233.589 84.2012 229.929 86.9181C227.798 88.4994 225.466 89.7216 222.983 90.6867C219.039 92.217 214.96 92.7874 210.756 92.5862C205.579 92.3367 200.823 90.7325 196.484 87.9519C191.152 84.5373 187.233 79.9158 184.855 74.0262C183.37 70.3494 182.607 66.535 182.604 62.573C182.596 54.2619 182.604 45.9482 182.604 37.6371L182.601 37.632ZM227.151 62.4813C227.05 54.2262 220.48 47.8375 212.541 47.7968C204.344 47.7535 197.744 54.295 197.734 62.4864C197.724 70.5938 204.37 77.1735 212.444 77.1811C220.399 77.1887 227.116 70.6549 227.151 62.4813Z" fill="url(#paint0_linear_688_1079)"/>
<path d="M-12.8504 93.4262C-19.2543 93.6859 -25.2458 92.0563 -30.7967 89.0007C-36.8671 85.6575 -41.728 80.9621 -45.2241 74.9452C-47.3757 71.2403 -49.0104 67.347 -49.7794 63.0871C-50.3294 60.0315 -50.9048 56.9912 -50.6935 53.8847C-50.3497 48.7845 -49.3541 43.8447 -47.2356 39.1213C-44.0451 32.012 -39.1588 26.3847 -32.625 22.2495C-27.5196 19.0183 -21.877 17.1748 -15.8041 16.6349C-11.949 16.2912 -8.1372 16.5305 -4.42725 17.4498C2.75586 19.2271 9.06814 22.6264 14.2244 28.0449C15.5306 29.4174 16.6841 30.8993 17.886 32.3482C18.6779 33.3056 18.5607 33.5831 17.5295 34.2859C14.3772 36.4324 11.2529 38.6197 8.11583 40.784C7.58874 41.1482 7.04383 41.4919 6.50401 41.8382C5.28688 42.6174 5.25123 42.5792 4.35239 41.4206C1.03201 37.1403 -3.24068 34.4336 -8.61846 33.3896C-14.7678 32.1954 -20.3798 33.4914 -25.4189 37.0002C-28.7851 39.3454 -31.1787 42.5945 -32.821 46.4012C-34.8835 51.1831 -35.1076 56.1459 -33.7963 61.0297C-32.5053 65.8422 -29.8037 69.929 -25.6608 72.9514C-20.9502 76.3864 -15.6946 77.7563 -9.93744 77.1656C-7.44207 76.9084 -5.13002 75.9102 -2.88419 74.8255C0.100071 73.3843 2.53178 71.2505 4.48988 68.61C5.11372 67.7697 5.50585 67.7061 6.38178 68.3223C9.90076 70.7922 13.3485 73.369 16.9871 75.6683C17.2723 75.8491 17.5193 76.091 17.8019 76.282C18.4029 76.6894 18.4003 77.1121 17.9776 77.685C15.057 81.6445 11.5813 84.9878 7.4334 87.6818C2.51141 90.8799 -2.87656 92.6929 -8.65666 93.4007C-10.0368 93.5688 -11.455 93.4262 -12.8555 93.4262H-12.8504Z" fill="url(#paint1_linear_688_1079)"/>
<path d="M141.18 62.9443C141.18 72.279 141.18 81.6137 141.18 90.9485C141.18 92.0587 140.607 92.6129 139.461 92.6112C135.407 92.6112 131.354 92.5857 127.3 92.6316C126.394 92.6418 126.106 92.3642 126.126 91.4705C126.147 90.5411 126.577 89.2501 125.917 88.7637C125.174 88.2188 124.273 89.3112 123.435 89.6575C117.736 92.0001 111.849 92.9346 105.784 91.6665C101.009 90.6684 96.6375 88.7128 92.79 85.5834C88.8255 82.3598 85.8412 78.4614 83.9009 73.7762C81.6525 68.345 80.9039 62.6922 82.1236 56.9299C83.1396 52.1378 85.0697 47.7174 88.2729 43.8776C91.5093 39.9996 95.3262 36.944 100.022 35.0827C105.048 33.0889 110.23 32.1875 115.669 33.122C118.976 33.6898 122.121 34.6473 125.09 36.1776C125.948 36.6206 126.134 36.3686 126.157 35.5232C126.22 33.201 126.238 33.201 128.619 33.201C132.293 33.201 135.97 33.201 139.644 33.201C141.149 33.201 141.18 33.229 141.18 34.7135C141.18 44.1246 141.18 53.5332 141.18 62.9443ZM96.6222 62.8704C96.719 70.9982 103.235 77.588 111.314 77.611C119.524 77.6364 126.047 71.0186 126.129 63.0232C126.21 54.9973 119.45 48.2267 111.457 48.2674C103.039 48.3107 96.8056 54.9056 96.6197 62.8679L96.6222 62.8704Z" fill="url(#paint2_linear_688_1079)"/>
<path d="M22.3341 51.7129C22.3341 38.7522 22.3493 25.7916 22.3086 12.8284C22.3061 11.68 22.6523 11.2242 23.7778 10.8881C27.7475 9.70151 31.6841 8.39271 35.6105 7.06864C37.2503 6.51609 37.4489 6.58993 37.4489 8.29595C37.4489 17.4397 37.4489 26.586 37.4489 35.7298C37.4489 37.7363 37.4642 37.7694 39.2797 36.9291C42.926 35.2383 46.7785 34.6985 50.7609 34.6807C55.7695 34.6603 60.4038 35.9793 64.6917 38.4874C68.9084 40.9548 72.3026 44.3108 74.7598 48.5275C77.4003 53.0573 78.6149 57.987 78.6022 63.2323C78.5793 72.3761 78.5971 81.5224 78.5945 90.6662C78.5945 92.2805 78.5793 92.2983 76.9369 92.2983C72.9596 92.2983 68.9823 92.3034 65.0049 92.2983C63.579 92.2983 63.4364 92.1456 63.4364 90.7527C63.4364 81.418 63.4415 72.0858 63.4364 62.7511C63.4339 57.4217 61.0123 53.4393 56.3042 51.0763C50.2211 48.0233 42.2843 49.8948 38.7144 56.9099C37.8181 58.6694 37.4413 60.5078 37.4438 62.4634C37.4565 71.8719 37.4514 81.2805 37.4489 90.6916C37.4489 92.2118 37.3598 92.3009 35.8422 92.3009C31.8267 92.3009 27.8112 92.3009 23.7956 92.3009C22.385 92.3009 22.3315 92.2474 22.3315 90.8266C22.3315 77.7895 22.3315 64.7525 22.3315 51.7154L22.3341 51.7129Z" fill="url(#paint3_linear_688_1079)"/>
<path d="M282.671 70.0774C276.231 70.0774 269.792 70.0748 263.352 70.0875C262.965 70.0875 262.428 69.8686 262.219 70.3294C262.035 70.7369 262.55 70.9431 262.759 71.2334C264.666 73.8713 267.278 75.5672 270.321 76.5577C273.807 77.6908 277.245 77.4362 280.547 75.7709C281.96 75.0579 283.442 74.4621 284.509 73.2068C284.929 72.7128 285.357 72.8808 285.772 73.2806C289.006 76.4024 292.232 79.5343 295.502 82.6204C296.194 83.2748 295.833 83.6339 295.354 84.082C292.548 86.7098 289.452 88.8309 285.854 90.323C281.746 92.0265 277.53 92.7751 273.135 92.5841C267.658 92.3447 262.68 90.626 258.081 87.5959C252.642 84.0107 248.797 79.1957 246.615 73.1431C245.141 69.0538 244.321 64.7989 244.83 60.3785C245.553 54.0637 247.792 48.3523 251.975 43.5704C256.171 38.7757 261.404 35.5699 267.716 34.0829C271.851 33.1102 275.969 32.8607 280.071 33.7544C288.486 35.5928 295.171 40.003 299.802 47.3898C303.805 53.776 304.836 60.6943 303.876 68.0251C303.619 69.9908 303.499 70.0748 301.529 70.0748C295.242 70.0748 288.952 70.0748 282.666 70.0748L282.671 70.0774ZM274.339 55.948C278.35 55.948 282.36 55.9556 286.37 55.9429C287.435 55.9403 287.532 55.7519 287.043 54.8327C286.954 54.6672 286.852 54.5068 286.755 54.3463C283.898 49.6357 276.702 46.631 271.37 48.1359C267.329 49.2767 264.139 51.3774 261.898 54.9422C261.267 55.948 261.73 55.9556 262.537 55.953C266.471 55.9403 270.405 55.948 274.342 55.948H274.339Z" fill="url(#paint4_linear_688_1079)"/>
<path d="M307.375 38.2968C307.375 29.3796 307.387 20.4625 307.352 11.5454C307.349 10.6414 307.583 10.1984 308.485 9.95646C311.112 9.24859 313.766 8.65785 316.421 8.06711C318.036 7.70808 319.655 7.34396 321.237 6.86016C322.331 6.52405 322.51 7.02567 322.507 7.89651C322.502 9.86225 322.507 11.8254 322.507 13.7912C322.507 20.0627 322.507 26.3368 322.507 32.6083C322.507 33.6574 323.016 34.1828 324.035 34.1845C327.936 34.1845 331.839 34.21 335.74 34.1667C336.654 34.1565 336.901 34.457 336.894 35.3354C336.856 39.4171 336.845 43.4963 336.899 47.578C336.912 48.6042 336.555 48.8512 335.585 48.8384C331.646 48.7901 327.707 48.8486 323.768 48.7977C322.757 48.785 322.479 49.116 322.489 50.1014C322.538 54.3334 322.561 58.5653 322.497 62.7973C322.436 66.9986 324.132 70.398 327.09 73.2345C329.578 75.6179 332.659 76.7662 336.028 77.1864C336.642 77.2628 336.891 77.413 336.886 78.0547C336.868 82.5896 336.861 87.122 336.886 91.657C336.891 92.5304 336.448 92.6297 335.74 92.6093C331.903 92.4947 328.264 91.5501 324.801 89.9484C317.825 86.7223 312.808 81.5915 309.697 74.5535C307.935 70.566 307.329 66.4206 307.359 62.1047C307.415 54.1704 307.375 46.2361 307.375 38.2993V38.2968Z" fill="url(#paint5_linear_688_1079)"/>
<path d="M146.899 37.9225C146.899 29.1556 146.912 20.3887 146.879 11.6243C146.876 10.6949 147.08 10.1653 148.06 9.94886C150.752 9.35812 153.428 8.70626 156.104 8.0595C157.642 7.68775 159.172 7.27524 160.71 6.89839C161.955 6.59284 162.055 6.67432 162.055 7.99839C162.057 15.7824 162.055 23.5665 162.055 31.3505C162.055 31.9183 162.103 32.4887 162.042 33.0489C161.943 33.9706 162.34 34.2074 163.218 34.1998C167.196 34.1616 171.173 34.2151 175.15 34.1591C176.166 34.1438 176.436 34.4646 176.423 35.45C176.372 39.4554 176.365 43.4607 176.426 47.466C176.444 48.5991 176.044 48.8538 174.985 48.8385C171.084 48.7825 167.18 48.8385 163.279 48.7977C162.342 48.7876 162.027 49.0804 162.034 50.0276C162.075 54.4098 161.932 58.7971 162.083 63.1767C162.276 68.8193 165.062 72.9417 170.063 75.5441C171.812 76.4556 173.689 77.0464 175.672 77.1915C176.207 77.2297 176.406 77.4334 176.403 77.9529C176.395 82.5617 176.395 87.173 176.403 91.7818C176.403 92.4286 176.08 92.6348 175.476 92.6093C172.128 92.4718 168.93 91.7742 165.795 90.5367C163.593 89.6658 161.556 88.5633 159.625 87.2545C157.049 85.5077 154.877 83.3255 152.949 80.8684C151.37 78.8568 150.227 76.6262 149.173 74.3295C147.587 70.869 146.973 67.1718 146.927 63.4313C146.82 54.9318 146.894 46.4271 146.894 37.925L146.899 37.9225Z" fill="url(#paint6_linear_688_1079)"/>
</g>
<defs>
<linearGradient id="paint0_linear_688_1079" x1="-169.577" y1="95.0306" x2="486.665" y2="15.6957" gradientUnits="userSpaceOnUse">
<stop stop-color="#7549E0"/>
<stop offset="1" stop-color="#5554EB"/>
</linearGradient>
<linearGradient id="paint1_linear_688_1079" x1="-172.081" y1="74.3315" x2="484.164" y2="-5.00354" gradientUnits="userSpaceOnUse">
<stop stop-color="#7549E0"/>
<stop offset="1" stop-color="#5554EB"/>
</linearGradient>
<linearGradient id="paint2_linear_688_1079" x1="-169.188" y1="98.2487" x2="487.054" y2="18.9111" gradientUnits="userSpaceOnUse">
<stop stop-color="#7549E0"/>
<stop offset="1" stop-color="#5554EB"/>
</linearGradient>
<linearGradient id="paint3_linear_688_1079" x1="-171.732" y1="77.209" x2="484.51" y2="-2.12601" gradientUnits="userSpaceOnUse">
<stop stop-color="#7549E0"/>
<stop offset="1" stop-color="#5554EB"/>
</linearGradient>
<linearGradient id="paint4_linear_688_1079" x1="-167.006" y1="116.308" x2="489.237" y2="36.9729" gradientUnits="userSpaceOnUse">
<stop stop-color="#7549E0"/>
<stop offset="1" stop-color="#5554EB"/>
</linearGradient>
<linearGradient id="paint5_linear_688_1079" x1="-167.801" y1="109.728" x2="488.442" y2="30.393" gradientUnits="userSpaceOnUse">
<stop stop-color="#7549E0"/>
<stop offset="1" stop-color="#5554EB"/>
</linearGradient>
<linearGradient id="paint6_linear_688_1079" x1="-170.11" y1="90.6258" x2="486.132" y2="11.2908" gradientUnits="userSpaceOnUse">
<stop stop-color="#7549E0"/>
<stop offset="1" stop-color="#5554EB"/>
</linearGradient>
</defs>
</svg>
